<?xml version="1.0" standalone="no"?>
<!DOCTYPE svg PUBLIC "-//W3C//DTD SVG 20010904//EN"
 "http://www.w3.org/TR/2001/REC-SVG-20010904/DTD/svg10.dtd">
<svg version="1.0" xmlns="http://www.w3.org/2000/svg"
 width="700.000000pt" height="700.000000pt" viewBox="0 0 700.000000 700.000000"
 preserveAspectRatio="xMidYMid meet">
<metadata>
Created by potrace 1.11, written by Peter Selinger 2001-2013
</metadata>
<g transform="translate(0.000000,700.000000) scale(0.100000,-0.100000)"
fill="#000000" stroke="none">
<path d="M5750 4860 c-153 -31 -245 -94 -339 -230 -61 -88 -111 -213 -124
-307 -5 -36 -4 -43 11 -44 18 -1 21 -1 120 -20 35 -6 65 -9 68 -7 2 3 11 32
19 64 36 140 123 262 224 314 59 30 161 37 232 16 168 -48 259 -258 225 -516
-13 -96 -88 -224 -213 -364 -184 -205 -243 -344 -248 -590 -2 -72 -1 -138 1
-146 3 -13 23 -15 106 -15 l102 0 2 130 c4 235 38 311 227 518 108 117 163
190 197 263 106 222 95 533 -25 719 -38 59 -114 133 -168 163 -107 61 -273 82
-417 52z"/>
<path d="M584 4812 c-6 -5 -10 -494 -9 -1287 l0 -1280 128 -3 127 -3 0 1289 0
1289 -118 1 c-66 0 -123 -3 -128 -6z"/>
<path d="M1420 3529 l0 -1289 128 0 127 0 -1 1273 c-1 699 -2 1279 -3 1288 -1
14 -18 16 -126 17 l-125 0 0 -1289z"/>
<path d="M2269 4812 c0 -4 -1 -583 -2 -1287 l0 -1280 364 -2 c323 -2 374 0
456 17 305 62 495 304 507 644 8 243 -58 421 -209 568 -42 40 -139 96 -191
110 -45 12 -53 30 -18 37 32 6 151 90 188 132 47 56 94 147 118 232 23 80 32
254 17 334 -5 26 -11 57 -13 68 -7 34 -38 108 -64 150 -60 96 -139 166 -246
216 -117 55 -167 60 -553 64 -194 2 -353 1 -354 -3z m629 -216 c154 -16 275
-99 332 -228 27 -62 32 -91 36 -205 7 -241 -105 -402 -321 -459 -69 -19 -435
-20 -436 -1 0 6 -1 211 -2 454 -2 376 0 443 12 445 27 5 317 1 379 -6z m58
-1120 c204 -40 352 -198 380 -406 7 -53 6 -204 -1 -239 -41 -204 -166 -329
-365 -367 -42 -8 -460 -12 -461 -4 0 7 -1 969 0 1001 l1 25 208 -2 c114 -1
221 -4 238 -8z"/>
<path d="M4039 4806 c-3 -39 -4 -2543 -1 -2553 3 -10 38 -13 128 -13 l124 0 0
603 0 602 360 0 360 0 1 52 c0 29 1 67 1 83 0 17 -1 43 -1 59 l-1 30 -242 0
c-134 0 -296 0 -360 1 l-118 0 0 460 0 459 358 0 c196 0 371 0 389 1 l32 0 -2
113 -2 112 -512 1 c-376 1 -513 -1 -514 -10z"/>
<path d="M5795 2568 c-72 -25 -120 -103 -112 -183 8 -88 50 -144 123 -164 119
-33 228 69 210 197 -16 115 -119 185 -221 150z"/>
</g>
</svg>
